<svg width="1985" height="1123" viewBox="0 0 1985 1123" fill="none" xmlns="http://www.w3.org/2000/svg">
<g clip-path="url(#clip0_10_3)">
<path d="M0 0H1985V1123H0V0Z" fill="#05040E"/>
<g filter="url(#filter0_f_10_3)">
<path d="M1611.21 796.512C1732.76 988.634 1581.98 1294.98 1274.43 1480.76C966.877 1666.55 351.926 1266.35 230.378 1074.23C108.83 882.104 677.59 1217.27 985.14 1031.49C1292.69 845.714 1489.67 604.39 1611.21 796.512Z" fill="#18EFBB"/>
</g>
<g filter="url(#filter1_f_10_3)">
<path d="M741.785 1379.02C620.277 1371.64 592.434 1332.09 511.876 1291.09C356.371 1211.96 377.596 1095.53 206.657 1027.48C-142.133 888.637 -91.3652 1873.04 513.893 1741.46C894.377 1658.75 1877.45 1172.76 1524.46 1213.24C1383.5 1229.41 1274.09 1292.67 1122.46 1325.11C965.978 1358.59 865.785 1386.55 741.785 1379.02Z" fill="url(#paint0_linear_10_3)"/>
</g>
<g filter="url(#filter2_f_10_3)">
<path d="M1614.18 724.018C1439.7 901.804 1353.14 1043.88 1310.81 1221.96C1225.06 1582.73 2623.78 330.449 2275.34 358.421C2055.63 376.057 1837.05 496.928 1614.18 724.018Z" fill="#2230DC" fill-opacity="0.83"/>
</g>
<g filter="url(#filter3_f_10_3)">
<path d="M1483.65 772.728C1362.55 838.875 1301.05 919.228 1268.09 1054.36C1201.31 1328.1 2167.46 950.431 1934.32 793.926C1787.32 695.246 1638.32 688.238 1483.65 772.728Z" fill="#00F0FF"/>
</g>
</g>
<defs>
<filter id="filter0_f_10_3" x="-106.39" y="405.965" width="2079.68" height="1442.8" filterUnits="userSpaceOnUse" color-interpolation-filters="sRGB">
<feFlood flood-opacity="0" result="BackgroundImageFix"/>
<feBlend mode="normal" in="SourceGraphic" in2="BackgroundImageFix" result="shape"/>
<feGaussianBlur stdDeviation="160" result="effect1_foregroundBlur_10_3"/>
</filter>
<filter id="filter1_f_10_3" x="-260.219" y="764.024" width="2109.9" height="1239.58" filterUnits="userSpaceOnUse" color-interpolation-filters="sRGB">
<feFlood flood-opacity="0" result="BackgroundImageFix"/>
<feBlend mode="normal" in="SourceGraphic" in2="BackgroundImageFix" result="shape"/>
<feGaussianBlur stdDeviation="125" result="effect1_foregroundBlur_10_3"/>
</filter>
<filter id="filter2_f_10_3" x="987.015" y="37.9585" width="1664.19" height="1569.33" filterUnits="userSpaceOnUse" color-interpolation-filters="sRGB">
<feFlood flood-opacity="0" result="BackgroundImageFix"/>
<feBlend mode="normal" in="SourceGraphic" in2="BackgroundImageFix" result="shape"/>
<feGaussianBlur stdDeviation="160" result="effect1_foregroundBlur_10_3"/>
</filter>
<filter id="filter3_f_10_3" x="944.769" y="394.231" width="1345.94" height="1076.94" filterUnits="userSpaceOnUse" color-interpolation-filters="sRGB">
<feFlood flood-opacity="0" result="BackgroundImageFix"/>
<feBlend mode="normal" in="SourceGraphic" in2="BackgroundImageFix" result="shape"/>
<feGaussianBlur stdDeviation="160" result="effect1_foregroundBlur_10_3"/>
</filter>
<linearGradient id="paint0_linear_10_3" x1="419.772" y1="1210.39" x2="725.38" y2="1631.05" gradientUnits="userSpaceOnUse">
<stop stop-color="#1FFF78"/>
<stop offset="1" stop-color="#1CC89F"/>
</linearGradient>
<clipPath id="clip0_10_3">
<path d="M0 0H1985V1123H0V0Z" fill="white"/>
</clipPath>
</defs>
</svg>
